<?xml version="1.0" encoding="UTF-8" standalone="no"?><svg xmlns="http://www.w3.org/2000/svg" xmlns:xlink="http://www.w3.org/1999/xlink" contentStyleType="text/css" height="428px" preserveAspectRatio="none" style="width:644px;height:428px;background:#FFFFFF;" version="1.1" viewBox="0 0 644 428" width="644px" zoomAndPan="magnify"><defs/><g><rect fill="#FFFFFF" height="336.3398" style="stroke:#181818;stroke-width:0.5;" width="5" x="16.75" y="46.3047"/><rect fill="#FFFFFF" height="320.6641" style="stroke:#181818;stroke-width:0.5;" width="5" x="117.25" y="57.4805"/><rect fill="#FFFFFF" height="60.5273" style="stroke:#181818;stroke-width:0.5;" width="5" x="221.75" y="57.4805"/><rect fill="#FFFFFF" height="86.7031" style="stroke:#181818;stroke-width:0.5;" width="5" x="221.75" y="163.5352"/><rect fill="#FFFFFF" height="33.3516" style="stroke:#181818;stroke-width:0.5;" width="5" x="221.75" y="326.1172"/><rect fill="#FFFFFF" height="15" style="stroke:#181818;stroke-width:0.5;" width="5" x="380.75" y="87.832"/><rect fill="#FFFFFF" height="15" style="stroke:#181818;stroke-width:0.5;" width="5" x="380.75" y="178.7109"/><rect fill="#FFFFFF" height="18.1758" style="stroke:#181818;stroke-width:0.5;" width="5" x="456" y="341.293"/><rect fill="#FFFFFF" height="15" style="stroke:#181818;stroke-width:0.5;" width="5" x="527.5" y="214.4746"/><line style="stroke:#181818;stroke-width:0.25;stroke-dasharray:5.0,5.0;" x1="19" x2="19" y1="41.3047" y2="387.1445"/><line style="stroke:#181818;stroke-width:0.25;stroke-dasharray:5.0,5.0;" x1="119.75" x2="119.75" y1="41.3047" y2="387.1445"/><line style="stroke:#181818;stroke-width:0.25;stroke-dasharray:5.0,5.0;" x1="224.25" x2="224.25" y1="41.3047" y2="387.1445"/><line style="stroke:#181818;stroke-width:0.25;stroke-dasharray:5.0,5.0;" x1="383.25" x2="383.25" y1="41.3047" y2="387.1445"/><line style="stroke:#181818;stroke-width:0.25;stroke-dasharray:5.0,5.0;" x1="458.25" x2="458.25" y1="41.3047" y2="387.1445"/><line style="stroke:#181818;stroke-width:0.25;stroke-dasharray:5.0,5.0;" x1="529.75" x2="529.75" y1="41.3047" y2="387.1445"/><text fill="#000000" font-family="sans-serif" font-size="7" lengthAdjust="spacing" textLength="30.5" x="2.5" y="39.7666">Customer</text><ellipse cx="19.25" cy="6.75" fill="#E2E2F0" rx="4" ry="4" style="stroke:#181818;stroke-width:0.25;"/><path d="M19.25,10.75 L19.25,24.25 M12.75,14.75 L25.75,14.75 M19.25,24.25 L12.75,31.75 M19.25,24.25 L25.75,31.75 " fill="none" style="stroke:#181818;stroke-width:0.25;"/><text fill="#000000" font-family="sans-serif" font-size="7" lengthAdjust="spacing" textLength="30.5" x="2.5" y="393.9111">Customer</text><ellipse cx="19.25" cy="399.6992" fill="#E2E2F0" rx="4" ry="4" style="stroke:#181818;stroke-width:0.25;"/><path d="M19.25,403.6992 L19.25,417.1992 M12.75,407.6992 L25.75,407.6992 M19.25,417.1992 L12.75,424.6992 M19.25,417.1992 L25.75,424.6992 " fill="none" style="stroke:#181818;stroke-width:0.25;"/><rect fill="#E2E2F0" height="15.8047" rx="1.25" ry="1.25" style="stroke:#181818;stroke-width:0.25;" width="47" x="96.25" y="25"/><text fill="#000000" font-family="sans-serif" font-size="7" lengthAdjust="spacing" textLength="40" x="99.75" y="35.7666">ListQuest_UI</text><rect fill="#E2E2F0" height="15.8047" rx="1.25" ry="1.25" style="stroke:#181818;stroke-width:0.25;" width="47" x="96.25" y="386.6445"/><text fill="#000000" font-family="sans-serif" font-size="7" lengthAdjust="spacing" textLength="40" x="99.75" y="397.4111">ListQuest_UI</text><rect fill="#E2E2F0" height="15.8047" rx="1.25" ry="1.25" style="stroke:#181818;stroke-width:0.25;" width="72" x="188.25" y="25"/><text fill="#000000" font-family="sans-serif" font-size="7" lengthAdjust="spacing" textLength="65" x="191.75" y="35.7666">ListQuest_Controller</text><rect fill="#E2E2F0" height="15.8047" rx="1.25" ry="1.25" style="stroke:#181818;stroke-width:0.25;" width="72" x="188.25" y="386.6445"/><text fill="#000000" font-family="sans-serif" font-size="7" lengthAdjust="spacing" textLength="65" x="191.75" y="397.4111">ListQuest_Controller</text><rect fill="#E2E2F0" height="15.8047" rx="1.25" ry="1.25" style="stroke:#181818;stroke-width:0.25;" width="89" x="338.75" y="25"/><text fill="#000000" font-family="sans-serif" font-size="7" lengthAdjust="spacing" textLength="82" x="342.25" y="35.7666">QuestionnairesRepository</text><rect fill="#E2E2F0" height="15.8047" rx="1.25" ry="1.25" style="stroke:#181818;stroke-width:0.25;" width="89" x="338.75" y="386.6445"/><text fill="#000000" font-family="sans-serif" font-size="7" lengthAdjust="spacing" textLength="82" x="342.25" y="397.4111">QuestionnairesRepository</text><rect fill="#E2E2F0" height="15.8047" rx="1.25" ry="1.25" style="stroke:#181818;stroke-width:0.25;" width="51.5" x="432.75" y="25"/><text fill="#000000" font-family="sans-serif" font-size="7" lengthAdjust="spacing" textLength="44.5" x="436.25" y="35.7666">Questionnaire</text><rect fill="#E2E2F0" height="15.8047" rx="1.25" ry="1.25" style="stroke:#181818;stroke-width:0.25;" width="51.5" x="432.75" y="386.6445"/><text fill="#000000" font-family="sans-serif" font-size="7" lengthAdjust="spacing" textLength="44.5" x="436.25" y="397.4111">Questionnaire</text><rect fill="#E2E2F0" height="15.8047" rx="1.25" ry="1.25" style="stroke:#181818;stroke-width:0.25;" width="81.5" x="489.25" y="25"/><text fill="#000000" font-family="sans-serif" font-size="7" lengthAdjust="spacing" textLength="74.5" x="492.75" y="35.7666">EvalVisitorOurGrammar</text><rect fill="#E2E2F0" height="15.8047" rx="1.25" ry="1.25" style="stroke:#181818;stroke-width:0.25;" width="81.5" x="489.25" y="386.6445"/><text fill="#000000" font-family="sans-serif" font-size="7" lengthAdjust="spacing" textLength="74.5" x="492.75" y="397.4111">EvalVisitorOurGrammar</text><rect fill="#FFFFFF" height="336.3398" style="stroke:#181818;stroke-width:0.5;" width="5" x="16.75" y="46.3047"/><rect fill="#FFFFFF" height="320.6641" style="stroke:#181818;stroke-width:0.5;" width="5" x="117.25" y="57.4805"/><rect fill="#FFFFFF" height="60.5273" style="stroke:#181818;stroke-width:0.5;" width="5" x="221.75" y="57.4805"/><rect fill="#FFFFFF" height="86.7031" style="stroke:#181818;stroke-width:0.5;" width="5" x="221.75" y="163.5352"/><rect fill="#FFFFFF" height="33.3516" style="stroke:#181818;stroke-width:0.5;" width="5" x="221.75" y="326.1172"/><rect fill="#FFFFFF" height="15" style="stroke:#181818;stroke-width:0.5;" width="5" x="380.75" y="87.832"/><rect fill="#FFFFFF" height="15" style="stroke:#181818;stroke-width:0.5;" width="5" x="380.75" y="178.7109"/><rect fill="#FFFFFF" height="18.1758" style="stroke:#181818;stroke-width:0.5;" width="5" x="456" y="341.293"/><rect fill="#FFFFFF" height="15" style="stroke:#181818;stroke-width:0.5;" width="5" x="527.5" y="214.4746"/><polygon fill="#181818" points="111.25,55.4805,116.25,57.4805,111.25,59.4805,113.25,57.4805" style="stroke:#181818;stroke-width:0.5;"/><line style="stroke:#181818;stroke-width:0.5;" x1="21.75" x2="114.25" y1="57.4805" y2="57.4805"/><text fill="#000000" font-family="sans-serif" font-size="6.5" font-weight="bold" lengthAdjust="spacing" textLength="3.5" x="25.25" y="55.0522">1</text><text fill="#000000" font-family="sans-serif" font-size="6.5" lengthAdjust="spacing" textLength="80.5" x="30.75" y="55.0522">I want to list Questionnaires</text><polygon fill="#181818" points="215.75,70.6563,220.75,72.6563,215.75,74.6563,217.75,72.6563" style="stroke:#181818;stroke-width:0.5;"/><line style="stroke:#181818;stroke-width:0.5;" x1="122.25" x2="218.75" y1="72.6563" y2="72.6563"/><text fill="#000000" font-family="sans-serif" font-size="6.5" font-weight="bold" lengthAdjust="spacing" textLength="3.5" x="125.75" y="70.228">2</text><text fill="#000000" font-family="sans-serif" font-size="6.5" lengthAdjust="spacing" textLength="75" x="131.25" y="70.228">findOpenQuestionnaires();</text><polygon fill="#181818" points="374.75,85.832,379.75,87.832,374.75,89.832,376.75,87.832" style="stroke:#181818;stroke-width:0.5;"/><line style="stroke:#181818;stroke-width:0.5;" x1="226.75" x2="377.75" y1="87.832" y2="87.832"/><text fill="#000000" font-family="sans-serif" font-size="6.5" font-weight="bold" lengthAdjust="spacing" textLength="3.5" x="230.25" y="85.4038">3</text><text fill="#000000" font-family="sans-serif" font-size="6.5" lengthAdjust="spacing" textLength="139" x="235.75" y="85.4038">List&lt;Questionnaires&gt; findOpenQuestionnaires();</text><polygon fill="#181818" points="127.75,116.0078,122.75,118.0078,127.75,120.0078,125.75,118.0078" style="stroke:#181818;stroke-width:0.5;"/><line style="stroke:#181818;stroke-width:0.5;stroke-dasharray:2.0,2.0;" x1="124.75" x2="223.75" y1="118.0078" y2="118.0078"/><text fill="#000000" font-family="sans-serif" font-size="6.5" font-weight="bold" lengthAdjust="spacing" textLength="3.5" x="130.75" y="115.5796">4</text><text fill="#000000" font-family="sans-serif" font-size="6.5" lengthAdjust="spacing" textLength="62" x="136.25" y="115.5796">List&lt;Questionnaires&gt;</text><polygon fill="#181818" points="27.25,131.1836,22.25,133.1836,27.25,135.1836,25.25,133.1836" style="stroke:#181818;stroke-width:0.5;"/><line style="stroke:#181818;stroke-width:0.5;stroke-dasharray:2.0,2.0;" x1="24.25" x2="116.75" y1="133.1836" y2="133.1836"/><text fill="#000000" font-family="sans-serif" font-size="6.5" font-weight="bold" lengthAdjust="spacing" textLength="3.5" x="30.25" y="130.7554">5</text><text fill="#000000" font-family="sans-serif" font-size="6.5" lengthAdjust="spacing" textLength="56" x="35.75" y="130.7554">List Questionnaires</text><polygon fill="#181818" points="111.25,146.3594,116.25,148.3594,111.25,150.3594,113.25,148.3594" style="stroke:#181818;stroke-width:0.5;"/><line style="stroke:#181818;stroke-width:0.5;" x1="21.75" x2="114.25" y1="148.3594" y2="148.3594"/><text fill="#000000" font-family="sans-serif" font-size="6.5" font-weight="bold" lengthAdjust="spacing" textLength="3.5" x="25.25" y="145.9312">6</text><text fill="#000000" font-family="sans-serif" font-size="6.5" lengthAdjust="spacing" textLength="34.5" x="30.75" y="145.9312">Choose one</text><polygon fill="#181818" points="215.75,161.5352,220.75,163.5352,215.75,165.5352,217.75,163.5352" style="stroke:#181818;stroke-width:0.5;"/><line style="stroke:#181818;stroke-width:0.5;" x1="122.25" x2="218.75" y1="163.5352" y2="163.5352"/><text fill="#000000" font-family="sans-serif" font-size="6.5" font-weight="bold" lengthAdjust="spacing" textLength="3.5" x="125.75" y="161.1069">7</text><text fill="#000000" font-family="sans-serif" font-size="6.5" lengthAdjust="spacing" textLength="79" x="131.25" y="161.1069">getQuestionnaireById(text);</text><polygon fill="#181818" points="374.75,176.7109,379.75,178.7109,374.75,180.7109,376.75,178.7109" style="stroke:#181818;stroke-width:0.5;"/><line style="stroke:#181818;stroke-width:0.5;" x1="226.75" x2="377.75" y1="178.7109" y2="178.7109"/><text fill="#000000" font-family="sans-serif" font-size="6.5" font-weight="bold" lengthAdjust="spacing" textLength="3.5" x="230.25" y="176.2827">8</text><text fill="#000000" font-family="sans-serif" font-size="6.5" lengthAdjust="spacing" textLength="77" x="235.75" y="176.2827">getQuestionnaireById(text)</text><polygon fill="#181818" points="521.5,212.4746,526.5,214.4746,521.5,216.4746,523.5,214.4746" style="stroke:#181818;stroke-width:0.5;"/><line style="stroke:#181818;stroke-width:0.5;" x1="226.75" x2="524.5" y1="214.4746" y2="214.4746"/><text fill="#000000" font-family="sans-serif" font-size="6.5" font-weight="bold" lengthAdjust="spacing" textLength="3.5" x="230.25" y="212.0464">9</text><text fill="#000000" font-family="sans-serif" font-size="6.5" lengthAdjust="spacing" textLength="16" x="235.75" y="212.0464">quest</text><path d="M535,200.2109 L535,221.2109 L640.5,221.2109 L640.5,205.2109 L635.5,200.2109 L535,200.2109 " fill="#FEFFDD" style="stroke:#181818;stroke-width:0.25;"/><path d="M635.5,200.2109 L635.5,205.2109 L640.5,205.2109 L635.5,200.2109 " fill="#FEFFDD" style="stroke:#181818;stroke-width:0.25;"/><text fill="#000000" font-family="sans-serif" font-size="6.5" lengthAdjust="spacing" textLength="95" x="538" y="209.4585">Realiza interação para responder</text><text fill="#000000" font-family="sans-serif" font-size="6.5" lengthAdjust="spacing" textLength="54" x="540" y="217.6343">e validar respostas</text><polygon fill="#181818" points="127.75,248.2383,122.75,250.2383,127.75,252.2383,125.75,250.2383" style="stroke:#181818;stroke-width:0.5;"/><line style="stroke:#181818;stroke-width:0.5;stroke-dasharray:2.0,2.0;" x1="124.75" x2="223.75" y1="250.2383" y2="250.2383"/><text fill="#000000" font-family="sans-serif" font-size="6.5" font-weight="bold" lengthAdjust="spacing" textLength="7" x="130.75" y="247.8101">10</text><text fill="#000000" font-family="sans-serif" font-size="6.5" lengthAdjust="spacing" textLength="16" x="139.75" y="247.8101">quest</text><polygon fill="#181818" points="27.25,263.4141,22.25,265.4141,27.25,267.4141,25.25,265.4141" style="stroke:#181818;stroke-width:0.5;"/><line style="stroke:#181818;stroke-width:0.5;stroke-dasharray:2.0,2.0;" x1="24.25" x2="116.75" y1="265.4141" y2="265.4141"/><text fill="#000000" font-family="sans-serif" font-size="6.5" font-weight="bold" lengthAdjust="spacing" textLength="7" x="30.25" y="262.9858">11</text><text fill="#000000" font-family="sans-serif" font-size="6.5" lengthAdjust="spacing" textLength="68" x="39.25" y="262.9858">Apresent Questionnaire</text><polygon fill="#181818" points="111.25,278.5898,116.25,280.5898,111.25,282.5898,113.25,280.5898" style="stroke:#181818;stroke-width:0.5;"/><line style="stroke:#181818;stroke-width:0.5;" x1="21.75" x2="114.25" y1="280.5898" y2="280.5898"/><text fill="#000000" font-family="sans-serif" font-size="6.5" font-weight="bold" lengthAdjust="spacing" textLength="7" x="25.25" y="278.1616">12</text><text fill="#000000" font-family="sans-serif" font-size="6.5" lengthAdjust="spacing" textLength="63.5" x="34.25" y="278.1616">Answer Questionnaire</text><polygon fill="#181818" points="27.25,293.7656,22.25,295.7656,27.25,297.7656,25.25,295.7656" style="stroke:#181818;stroke-width:0.5;"/><line style="stroke:#181818;stroke-width:0.5;stroke-dasharray:2.0,2.0;" x1="24.25" x2="116.75" y1="295.7656" y2="295.7656"/><text fill="#000000" font-family="sans-serif" font-size="6.5" font-weight="bold" lengthAdjust="spacing" textLength="7" x="30.25" y="293.3374">13</text><text fill="#000000" font-family="sans-serif" font-size="6.5" lengthAdjust="spacing" textLength="49" x="39.25" y="293.3374">Confirm Answers</text><polygon fill="#181818" points="111.25,308.9414,116.25,310.9414,111.25,312.9414,113.25,310.9414" style="stroke:#181818;stroke-width:0.5;"/><line style="stroke:#181818;stroke-width:0.5;" x1="21.75" x2="114.25" y1="310.9414" y2="310.9414"/><text fill="#000000" font-family="sans-serif" font-size="6.5" font-weight="bold" lengthAdjust="spacing" textLength="7" x="25.25" y="308.5132">14</text><text fill="#000000" font-family="sans-serif" font-size="6.5" lengthAdjust="spacing" textLength="60" x="34.25" y="308.5132">Confirmation Sucess</text><polygon fill="#181818" points="215.75,324.1172,220.75,326.1172,215.75,328.1172,217.75,326.1172" style="stroke:#181818;stroke-width:0.5;"/><line style="stroke:#181818;stroke-width:0.5;" x1="122.25" x2="218.75" y1="326.1172" y2="326.1172"/><text fill="#000000" font-family="sans-serif" font-size="6.5" font-weight="bold" lengthAdjust="spacing" textLength="7" x="125.75" y="323.689">15</text><text fill="#000000" font-family="sans-serif" font-size="6.5" lengthAdjust="spacing" textLength="81" x="134.75" y="323.689">confirmQuestionnaire(quest)</text><polygon fill="#181818" points="450,339.293,455,341.293,450,343.293,452,341.293" style="stroke:#181818;stroke-width:0.5;"/><line style="stroke:#181818;stroke-width:0.5;" x1="226.75" x2="453" y1="341.293" y2="341.293"/><text fill="#000000" font-family="sans-serif" font-size="6.5" font-weight="bold" lengthAdjust="spacing" textLength="7" x="230.25" y="338.8647">16</text><text fill="#000000" font-family="sans-serif" font-size="6.5" lengthAdjust="spacing" textLength="28.5" x="239.25" y="338.8647">setState()</text><line style="stroke:#181818;stroke-width:0.5;" x1="461" x2="482" y1="358.9688" y2="358.9688"/><line style="stroke:#181818;stroke-width:0.5;" x1="482" x2="482" y1="358.9688" y2="365.4688"/><line style="stroke:#181818;stroke-width:0.5;" x1="458.5" x2="482" y1="365.4688" y2="365.4688"/><polygon fill="#181818" points="463.5,363.4688,458.5,365.4688,463.5,367.4688,461.5,365.4688" style="stroke:#181818;stroke-width:0.5;"/><text fill="#000000" font-family="sans-serif" font-size="6.5" font-weight="bold" lengthAdjust="spacing" textLength="7" x="464.5" y="356.5405">17</text><text fill="#000000" font-family="sans-serif" font-size="6.5" lengthAdjust="spacing" textLength="32" x="473.5" y="356.5405">setState(1)</text><polygon fill="#181818" points="27.25,376.1445,22.25,378.1445,27.25,380.1445,25.25,378.1445" style="stroke:#181818;stroke-width:0.5;"/><line style="stroke:#181818;stroke-width:0.5;stroke-dasharray:2.0,2.0;" x1="24.25" x2="119.25" y1="378.1445" y2="378.1445"/><text fill="#000000" font-family="sans-serif" font-size="6.5" font-weight="bold" lengthAdjust="spacing" textLength="7" x="30.25" y="375.7163">18</text><text fill="#000000" font-family="sans-serif" font-size="6.5" lengthAdjust="spacing" textLength="51" x="39.25" y="375.7163">Operation sucess</text><!--MD5=[019a1e32df28a01f7ec9801c0a19f400]
@startuml
'https://plantuml.com/sequence-diagram
autonumber

actor "Customer" as C

participant "ListQuest_UI" as UI
participant "ListQuest_Controller" as CTR
participant "QuestionnairesRepository" as QR
participant "Questionnaire" as Q
participant "EvalVisitorOurGrammar" as Eval

activate C

C -> UI : I want to list Questionnaires
activate UI
activate CTR

UI -> CTR : findOpenQuestionnaires();

CTR -> QR : List<Questionnaires> findOpenQuestionnaires();
activate QR
deactivate QR

CTR - -> UI : List<Questionnaires>
deactivate CTR
UI - -> C : List Questionnaires

C -> UI : Choose one
UI -> CTR: getQuestionnaireById(text);
activate CTR

CTR -> QR : getQuestionnaireById(text)
activate QR
deactivate QR

CTR -> Eval : quest
activate Eval
deactivate Eval 
note right: Realiza interação para responder\n e validar respostas

CTR - -> UI : quest

deactivate CTR

UI - -> C : Apresent Questionnaire





C -> UI : Answer Questionnaire











UI - -> C : Confirm Answers

C -> UI : Confirmation Sucess

UI -> CTR : confirmQuestionnaire(quest)
activate CTR

CTR -> Q : setState()
activate Q
Q -> Q : setState(1)
deactivate Q

deactivate CTR

UI - -> C : Operation sucess
deactivate UI


deactivate CTR




@enduml

@startuml
autonumber

actor "Customer" as C

participant "ListQuest_UI" as UI
participant "ListQuest_Controller" as CTR
participant "QuestionnairesRepository" as QR
participant "Questionnaire" as Q
participant "EvalVisitorOurGrammar" as Eval

activate C

C -> UI : I want to list Questionnaires
activate UI
activate CTR

UI -> CTR : findOpenQuestionnaires();

CTR -> QR : List<Questionnaires> findOpenQuestionnaires();
activate QR
deactivate QR

CTR - -> UI : List<Questionnaires>
deactivate CTR
UI - -> C : List Questionnaires

C -> UI : Choose one
UI -> CTR: getQuestionnaireById(text);
activate CTR

CTR -> QR : getQuestionnaireById(text)
activate QR
deactivate QR

CTR -> Eval : quest
activate Eval
deactivate Eval 
note right: Realiza interação para responder\n e validar respostas

CTR - -> UI : quest

deactivate CTR

UI - -> C : Apresent Questionnaire





C -> UI : Answer Questionnaire











UI - -> C : Confirm Answers

C -> UI : Confirmation Sucess

UI -> CTR : confirmQuestionnaire(quest)
activate CTR

CTR -> Q : setState()
activate Q
Q -> Q : setState(1)
deactivate Q

deactivate CTR

UI - -> C : Operation sucess
deactivate UI


deactivate CTR




@enduml

PlantUML version 1.2022.5(Sat Apr 30 11:55:52 BST 2022)
(GPL source distribution)
Java Runtime: OpenJDK Runtime Environment
JVM: OpenJDK 64-Bit Server VM
Default Encoding: Cp1252
Language: pt
Country: PT
--></g></svg>