<?xml version="1.0" encoding="UTF-8" standalone="no"?><svg xmlns="http://www.w3.org/2000/svg" xmlns:xlink="http://www.w3.org/1999/xlink" contentStyleType="text/css" height="453.6px" preserveAspectRatio="none" style="width:657px;height:453px;background:#FFFFFF;" version="1.1" viewBox="0 0 657 453" width="657.3px" zoomAndPan="magnify"><defs/><g><rect fill="#FFFFFF" height="319.1453" style="stroke:#181818;stroke-width:0.6999999999999998;" width="7" x="27.3" y="64.8266"/><rect fill="#FFFFFF" height="303.4992" style="stroke:#181818;stroke-width:0.6999999999999998;" width="7" x="166.6" y="80.4727"/><rect fill="#FFFFFF" height="218.5148" style="stroke:#181818;stroke-width:0.6999999999999998;" width="7" x="291.9" y="144.2109"/><rect fill="#FFFFFF" height="94.0844" style="stroke:#181818;stroke-width:0.6999999999999998;" width="7" x="409.85" y="165.457"/><rect fill="#FFFFFF" height="55.7922" style="stroke:#181818;stroke-width:0.6999999999999998;" width="7" x="511.35" y="280.7875"/><rect fill="#FFFFFF" height="51.5922" style="stroke:#181818;stroke-width:0.6999999999999998;" width="7" x="597.45" y="207.9492"/><line style="stroke:#181818;stroke-width:0.3499999999999999;stroke-dasharray:5.0,5.0;" x1="30.8" x2="30.8" y1="57.8266" y2="396.5719"/><line style="stroke:#181818;stroke-width:0.3499999999999999;stroke-dasharray:5.0,5.0;" x1="170.1" x2="170.1" y1="57.8266" y2="396.5719"/><line style="stroke:#181818;stroke-width:0.3499999999999999;stroke-dasharray:5.0,5.0;" x1="295.4" x2="295.4" y1="57.8266" y2="396.5719"/><line style="stroke:#181818;stroke-width:0.3499999999999999;stroke-dasharray:5.0,5.0;" x1="413" x2="413" y1="57.8266" y2="396.5719"/><line style="stroke:#181818;stroke-width:0.3499999999999999;stroke-dasharray:5.0,5.0;" x1="514.5" x2="514.5" y1="57.8266" y2="396.5719"/><line style="stroke:#181818;stroke-width:0.3499999999999999;stroke-dasharray:5.0,5.0;" x1="600.6" x2="600.6" y1="57.8266" y2="396.5719"/><text fill="#000000" font-family="sans-serif" font-size="9.8" lengthAdjust="spacing" textLength="50.4" x="3.5" y="55.6732">Sales Clerk</text><ellipse cx="30.8" cy="9.45" fill="#E2E2F0" rx="5.6" ry="5.6" style="stroke:#181818;stroke-width:0.3499999999999999;"/><path d="M30.8,15.05 L30.8,33.95 M21.7,20.65 L39.9,20.65 M30.8,33.95 L21.7,44.45 M30.8,33.95 L39.9,44.45 " fill="none" style="stroke:#181818;stroke-width:0.3499999999999999;"/><text fill="#000000" font-family="sans-serif" font-size="9.8" lengthAdjust="spacing" textLength="50.4" x="3.5" y="406.0451">Sales Clerk</text><ellipse cx="30.8" cy="414.1484" fill="#E2E2F0" rx="5.6" ry="5.6" style="stroke:#181818;stroke-width:0.3499999999999999;"/><path d="M30.8,419.7484 L30.8,438.6484 M21.7,425.3484 L39.9,425.3484 M30.8,438.6484 L21.7,449.1484 M30.8,438.6484 L39.9,449.1484 " fill="none" style="stroke:#181818;stroke-width:0.3499999999999999;"/><rect fill="#E2E2F0" height="22.1266" rx="1.75" ry="1.75" style="stroke:#181818;stroke-width:0.3499999999999999;" width="100.8" x="119.7" y="35"/><text fill="#000000" font-family="sans-serif" font-size="9.8" lengthAdjust="spacing" textLength="91" x="124.6" y="50.0732">:RegisterCustomerUI</text><rect fill="#E2E2F0" height="22.1266" rx="1.75" ry="1.75" style="stroke:#181818;stroke-width:0.3499999999999999;" width="100.8" x="119.7" y="395.8719"/><text fill="#000000" font-family="sans-serif" font-size="9.8" lengthAdjust="spacing" textLength="91" x="124.6" y="410.9451">:RegisterCustomerUI</text><rect fill="#E2E2F0" height="22.1266" rx="1.75" ry="1.75" style="stroke:#181818;stroke-width:0.3499999999999999;" width="135.8" x="227.5" y="35"/><text fill="#000000" font-family="sans-serif" font-size="9.8" lengthAdjust="spacing" textLength="126" x="232.4" y="50.0732">:RegisterCustomerController</text><rect fill="#E2E2F0" height="22.1266" rx="1.75" ry="1.75" style="stroke:#181818;stroke-width:0.3499999999999999;" width="135.8" x="227.5" y="395.8719"/><text fill="#000000" font-family="sans-serif" font-size="9.8" lengthAdjust="spacing" textLength="126" x="232.4" y="410.9451">:RegisterCustomerController</text><rect fill="#E2E2F0" height="22.1266" rx="1.75" ry="1.75" style="stroke:#181818;stroke-width:0.3499999999999999;" width="86.1" x="370.3" y="35"/><text fill="#000000" font-family="sans-serif" font-size="9.8" lengthAdjust="spacing" textLength="76.3" x="375.2" y="50.0732">:CustomerBuilder</text><rect fill="#E2E2F0" height="22.1266" rx="1.75" ry="1.75" style="stroke:#181818;stroke-width:0.3499999999999999;" width="86.1" x="370.3" y="395.8719"/><text fill="#000000" font-family="sans-serif" font-size="9.8" lengthAdjust="spacing" textLength="76.3" x="375.2" y="410.9451">:CustomerBuilder</text><rect fill="#E2E2F0" height="22.1266" rx="1.75" ry="1.75" style="stroke:#181818;stroke-width:0.3499999999999999;" width="102.9" x="463.4" y="35"/><text fill="#000000" font-family="sans-serif" font-size="9.8" lengthAdjust="spacing" textLength="93.1" x="468.3" y="50.0732">:CustomerRepository</text><rect fill="#E2E2F0" height="22.1266" rx="1.75" ry="1.75" style="stroke:#181818;stroke-width:0.3499999999999999;" width="102.9" x="463.4" y="395.8719"/><text fill="#000000" font-family="sans-serif" font-size="9.8" lengthAdjust="spacing" textLength="93.1" x="468.3" y="410.9451">:CustomerRepository</text><rect fill="#E2E2F0" height="22.1266" rx="1.75" ry="1.75" style="stroke:#181818;stroke-width:0.3499999999999999;" width="55.3" x="573.3" y="35"/><text fill="#000000" font-family="sans-serif" font-size="9.8" lengthAdjust="spacing" textLength="45.5" x="578.2" y="50.0732">:Customer</text><rect fill="#E2E2F0" height="22.1266" rx="1.75" ry="1.75" style="stroke:#181818;stroke-width:0.3499999999999999;" width="55.3" x="573.3" y="395.8719"/><text fill="#000000" font-family="sans-serif" font-size="9.8" lengthAdjust="spacing" textLength="45.5" x="578.2" y="410.9451">:Customer</text><rect fill="#FFFFFF" height="319.1453" style="stroke:#181818;stroke-width:0.6999999999999998;" width="7" x="27.3" y="64.8266"/><rect fill="#FFFFFF" height="303.4992" style="stroke:#181818;stroke-width:0.6999999999999998;" width="7" x="166.6" y="80.4727"/><rect fill="#FFFFFF" height="218.5148" style="stroke:#181818;stroke-width:0.6999999999999998;" width="7" x="291.9" y="144.2109"/><rect fill="#FFFFFF" height="94.0844" style="stroke:#181818;stroke-width:0.6999999999999998;" width="7" x="409.85" y="165.457"/><rect fill="#FFFFFF" height="55.7922" style="stroke:#181818;stroke-width:0.6999999999999998;" width="7" x="511.35" y="280.7875"/><rect fill="#FFFFFF" height="51.5922" style="stroke:#181818;stroke-width:0.6999999999999998;" width="7" x="597.45" y="207.9492"/><polygon fill="#181818" points="158.2,77.6727,165.2,80.4727,158.2,83.2727,161,80.4727" style="stroke:#181818;stroke-width:0.6999999999999998;"/><line style="stroke:#181818;stroke-width:0.6999999999999998;" x1="34.3" x2="162.4" y1="80.4727" y2="80.4727"/><text fill="#000000" font-family="sans-serif" font-size="9.1" font-weight="bold" lengthAdjust="spacing" textLength="4.9" x="39.2" y="77.0731">1</text><text fill="#000000" font-family="sans-serif" font-size="9.1" lengthAdjust="spacing" textLength="105" x="46.9" y="77.0731">Initiate Register Customer</text><polygon fill="#181818" points="42,98.9187,35,101.7187,42,104.5187,39.2,101.7187" style="stroke:#181818;stroke-width:0.6999999999999998;"/><line style="stroke:#181818;stroke-width:0.6999999999999998;stroke-dasharray:2.0,2.0;" x1="37.8" x2="165.9" y1="101.7187" y2="101.7187"/><text fill="#000000" font-family="sans-serif" font-size="9.1" font-weight="bold" lengthAdjust="spacing" textLength="4.9" x="46.2" y="98.3192">2</text><text fill="#000000" font-family="sans-serif" font-size="9.1" lengthAdjust="spacing" textLength="107.8" x="53.9" y="98.3192">Ask necessary information</text><polygon fill="#181818" points="158.2,120.1648,165.2,122.9648,158.2,125.7648,161,122.9648" style="stroke:#181818;stroke-width:0.6999999999999998;"/><line style="stroke:#181818;stroke-width:0.6999999999999998;" x1="34.3" x2="162.4" y1="122.9648" y2="122.9648"/><text fill="#000000" font-family="sans-serif" font-size="9.1" font-weight="bold" lengthAdjust="spacing" textLength="4.9" x="39.2" y="119.5653">3</text><text fill="#000000" font-family="sans-serif" font-size="9.1" lengthAdjust="spacing" textLength="42.7" x="46.9" y="119.5653">Insert data</text><polygon fill="#181818" points="283.5,141.4109,290.5,144.2109,283.5,147.0109,286.3,144.2109" style="stroke:#181818;stroke-width:0.6999999999999998;"/><line style="stroke:#181818;stroke-width:0.6999999999999998;" x1="173.6" x2="287.7" y1="144.2109" y2="144.2109"/><text fill="#000000" font-family="sans-serif" font-size="9.1" font-weight="bold" lengthAdjust="spacing" textLength="4.9" x="178.5" y="140.8114">4</text><text fill="#000000" font-family="sans-serif" font-size="9.1" lengthAdjust="spacing" textLength="74.9" x="186.2" y="140.8114">registerCustomer()</text><polygon fill="#181818" points="401.45,162.657,408.45,165.457,401.45,168.257,404.25,165.457" style="stroke:#181818;stroke-width:0.6999999999999998;"/><line style="stroke:#181818;stroke-width:0.6999999999999998;" x1="298.9" x2="405.65" y1="165.457" y2="165.457"/><text fill="#000000" font-family="sans-serif" font-size="9.1" font-weight="bold" lengthAdjust="spacing" textLength="4.9" x="303.8" y="162.0575">5</text><text fill="#000000" font-family="sans-serif" font-size="9.1" lengthAdjust="spacing" textLength="30.8" x="311.5" y="162.0575">create()</text><polygon fill="#181818" points="401.45,183.9031,408.45,186.7031,401.45,189.5031,404.25,186.7031" style="stroke:#181818;stroke-width:0.6999999999999998;"/><line style="stroke:#181818;stroke-width:0.6999999999999998;" x1="298.9" x2="405.65" y1="186.7031" y2="186.7031"/><text fill="#000000" font-family="sans-serif" font-size="9.1" font-weight="bold" lengthAdjust="spacing" textLength="4.9" x="303.8" y="183.3036">6</text><text fill="#000000" font-family="sans-serif" font-size="9.1" lengthAdjust="spacing" textLength="37.1" x="311.5" y="183.3036">setData()</text><polygon fill="#181818" points="589.05,205.1492,596.05,207.9492,589.05,210.7492,591.85,207.9492" style="stroke:#181818;stroke-width:0.6999999999999998;"/><line style="stroke:#181818;stroke-width:0.6999999999999998;" x1="416.85" x2="593.25" y1="207.9492" y2="207.9492"/><text fill="#000000" font-family="sans-serif" font-size="9.1" font-weight="bold" lengthAdjust="spacing" textLength="4.9" x="421.75" y="204.5497">7</text><text fill="#000000" font-family="sans-serif" font-size="9.1" lengthAdjust="spacing" textLength="67.2" x="429.45" y="204.5497">create Customer</text><line style="stroke:#181818;stroke-width:0.6999999999999998;" x1="604.45" x2="633.85" y1="229.1953" y2="229.1953"/><line style="stroke:#181818;stroke-width:0.6999999999999998;" x1="633.85" x2="633.85" y1="229.1953" y2="238.2953"/><line style="stroke:#181818;stroke-width:0.6999999999999998;" x1="605.15" x2="633.85" y1="238.2953" y2="238.2953"/><polygon fill="#181818" points="612.15,235.4953,605.15,238.2953,612.15,241.0953,609.35,238.2953" style="stroke:#181818;stroke-width:0.6999999999999998;"/><text fill="#000000" font-family="sans-serif" font-size="9.1" font-weight="bold" lengthAdjust="spacing" textLength="4.9" x="609.35" y="225.7958">8</text><text fill="#000000" font-family="sans-serif" font-size="9.1" lengthAdjust="spacing" textLength="35.7" x="617.05" y="225.7958">validate()</text><polygon fill="#181818" points="421.05,256.7414,414.05,259.5414,421.05,262.3414,418.25,259.5414" style="stroke:#181818;stroke-width:0.6999999999999998;"/><line style="stroke:#181818;stroke-width:0.6999999999999998;stroke-dasharray:2.0,2.0;" x1="416.85" x2="600.25" y1="259.5414" y2="259.5414"/><text fill="#000000" font-family="sans-serif" font-size="9.1" font-weight="bold" lengthAdjust="spacing" textLength="4.9" x="425.25" y="256.1419">9</text><text fill="#000000" font-family="sans-serif" font-size="9.1" lengthAdjust="spacing" textLength="37.8" x="432.95" y="256.1419">customer</text><polygon fill="#181818" points="502.95,277.9875,509.95,280.7875,502.95,283.5875,505.75,280.7875" style="stroke:#181818;stroke-width:0.6999999999999998;"/><line style="stroke:#181818;stroke-width:0.6999999999999998;" x1="298.9" x2="507.15" y1="280.7875" y2="280.7875"/><text fill="#000000" font-family="sans-serif" font-size="9.1" font-weight="bold" lengthAdjust="spacing" textLength="9.8" x="303.8" y="277.388">10</text><text fill="#000000" font-family="sans-serif" font-size="9.1" lengthAdjust="spacing" textLength="61.6" x="316.4" y="277.388">save(customer)</text><line style="stroke:#181818;stroke-width:0.6999999999999998;" x1="518.35" x2="547.75" y1="302.0336" y2="302.0336"/><line style="stroke:#181818;stroke-width:0.6999999999999998;" x1="547.75" x2="547.75" y1="302.0336" y2="311.1336"/><line style="stroke:#181818;stroke-width:0.6999999999999998;" x1="519.05" x2="547.75" y1="311.1336" y2="311.1336"/><polygon fill="#181818" points="526.05,308.3336,519.05,311.1336,526.05,313.9336,523.25,311.1336" style="stroke:#181818;stroke-width:0.6999999999999998;"/><text fill="#000000" font-family="sans-serif" font-size="9.1" font-weight="bold" lengthAdjust="spacing" textLength="9.8" x="523.25" y="298.6341">11</text><text fill="#000000" font-family="sans-serif" font-size="9.1" lengthAdjust="spacing" textLength="35.7" x="535.85" y="298.6341">validate()</text><line style="stroke:#181818;stroke-width:0.6999999999999998;" x1="518.35" x2="547.75" y1="335.8797" y2="335.8797"/><line style="stroke:#181818;stroke-width:0.6999999999999998;" x1="547.75" x2="547.75" y1="335.8797" y2="344.9797"/><line style="stroke:#181818;stroke-width:0.6999999999999998;" x1="514.85" x2="547.75" y1="344.9797" y2="344.9797"/><polygon fill="#181818" points="521.85,342.1797,514.85,344.9797,521.85,347.7797,519.05,344.9797" style="stroke:#181818;stroke-width:0.6999999999999998;"/><text fill="#000000" font-family="sans-serif" font-size="9.1" font-weight="bold" lengthAdjust="spacing" textLength="9.8" x="523.25" y="332.4802">12</text><text fill="#000000" font-family="sans-serif" font-size="9.1" lengthAdjust="spacing" textLength="20.3" x="535.85" y="332.4802">add()</text><polygon fill="#181818" points="181.3,359.9258,174.3,362.7258,181.3,365.5258,178.5,362.7258" style="stroke:#181818;stroke-width:0.6999999999999998;"/><line style="stroke:#181818;stroke-width:0.6999999999999998;stroke-dasharray:2.0,2.0;" x1="177.1" x2="294.7" y1="362.7258" y2="362.7258"/><text fill="#000000" font-family="sans-serif" font-size="9.1" font-weight="bold" lengthAdjust="spacing" textLength="9.8" x="185.5" y="359.3263">13</text><text fill="#000000" font-family="sans-serif" font-size="9.1" lengthAdjust="spacing" textLength="84" x="198.1" y="359.3263">Operation (in)sucess</text><polygon fill="#181818" points="38.5,381.1719,31.5,383.9719,38.5,386.7719,35.7,383.9719" style="stroke:#181818;stroke-width:0.6999999999999998;"/><line style="stroke:#181818;stroke-width:0.6999999999999998;stroke-dasharray:2.0,2.0;" x1="34.3" x2="169.4" y1="383.9719" y2="383.9719"/><text fill="#000000" font-family="sans-serif" font-size="9.1" font-weight="bold" lengthAdjust="spacing" textLength="9.8" x="42.7" y="380.5724">14</text><text fill="#000000" font-family="sans-serif" font-size="9.1" lengthAdjust="spacing" textLength="2.8" x="55.3" y="380.5724"> </text><!--MD5=[3fc5af1dbdd4de6e4e9bef354179f711]
@startuml
'https://plantuml.com/sequence-diagram

autonumber

actor "Sales Clerk" as SalesClerk

participant ":RegisterCustomerUI" as UI
participant ":RegisterCustomerController" as CTRL
participant ":CustomerBuilder" as Build
participant ":CustomerRepository" as Repo
participant ":Customer" as Customer



activate SalesClerk


SalesClerk -> UI : Initiate Register Customer
activate UI
UI - -> SalesClerk : Ask necessary information
SalesClerk -> UI : Insert data
UI -> CTRL : registerCustomer()
activate CTRL

CTRL -> Build : create()
activate Build
CTRL -> Build : setData()
Build -> Customer : create Customer
activate Customer
Customer -> Customer : validate()
Customer - -> Build : customer
deactivate Build
deactivate Customer

CTRL -> Repo : save(customer)

activate Repo
Repo -> Repo : validate()
Repo -> Repo : add()
deactivate Repo

CTRL - -> UI : Operation (in)sucess
deactivate CTRL

UI - -> SalesClerk
deactivate UI

deactivate SalesClerk


@enduml

@startuml

autonumber

actor "Sales Clerk" as SalesClerk

participant ":RegisterCustomerUI" as UI
participant ":RegisterCustomerController" as CTRL
participant ":CustomerBuilder" as Build
participant ":CustomerRepository" as Repo
participant ":Customer" as Customer



activate SalesClerk


SalesClerk -> UI : Initiate Register Customer
activate UI
UI - -> SalesClerk : Ask necessary information
SalesClerk -> UI : Insert data
UI -> CTRL : registerCustomer()
activate CTRL

CTRL -> Build : create()
activate Build
CTRL -> Build : setData()
Build -> Customer : create Customer
activate Customer
Customer -> Customer : validate()
Customer - -> Build : customer
deactivate Build
deactivate Customer

CTRL -> Repo : save(customer)

activate Repo
Repo -> Repo : validate()
Repo -> Repo : add()
deactivate Repo

CTRL - -> UI : Operation (in)sucess
deactivate CTRL

UI - -> SalesClerk
deactivate UI

deactivate SalesClerk


@enduml

PlantUML version 1.2022.4(Sat Apr 09 14:29:17 BST 2022)
(GPL source distribution)
Java Runtime: OpenJDK Runtime Environment
JVM: OpenJDK 64-Bit Server VM
Default Encoding: Cp1252
Language: pt
Country: PT
--></g></svg>