<?xml version="1.0" encoding="UTF-8" standalone="no"?><svg xmlns="http://www.w3.org/2000/svg" xmlns:xlink="http://www.w3.org/1999/xlink" contentStyleType="text/css" height="827px" preserveAspectRatio="none" style="width:1050px;height:827px;background:#FFFFFF;" version="1.1" viewBox="0 0 1050 827" width="1050px" zoomAndPan="magnify"><defs/><g><rect fill="#FFFFFF" height="643.6797" style="stroke:#181818;stroke-width:1.0;" width="10" x="75.5" y="92.6094"/><rect fill="#FFFFFF" height="30.3516" style="stroke:#181818;stroke-width:1.0;" width="10" x="354.5" y="114.9609"/><rect fill="#FFFFFF" height="209.4609" style="stroke:#181818;stroke-width:1.0;" width="10" x="354.5" y="175.6641"/><rect fill="#FFFFFF" height="146.4063" style="stroke:#181818;stroke-width:1.0;" width="10" x="354.5" y="415.4766"/><rect fill="#FFFFFF" height="135.0547" style="stroke:#181818;stroke-width:1.0;" width="10" x="354.5" y="592.2344"/><rect fill="#FFFFFF" height="90.7031" style="stroke:#181818;stroke-width:1.0;" width="10" x="628.5" y="206.0156"/><rect fill="#FFFFFF" height="60.3516" style="stroke:#181818;stroke-width:1.0;" width="10" x="628.5" y="445.8281"/><rect fill="#FFFFFF" height="60.3516" style="stroke:#181818;stroke-width:1.0;" width="10" x="628.5" y="622.5859"/><rect fill="#FFFFFF" height="60.3516" style="stroke:#181818;stroke-width:1.0;" width="10" x="909.5" y="236.3672"/><rect fill="#FFFFFF" height="30" style="stroke:#181818;stroke-width:1.0;" width="10" x="909.5" y="476.1797"/><rect fill="#FFFFFF" height="30" style="stroke:#181818;stroke-width:1.0;" width="10" x="909.5" y="652.9375"/><rect fill="#FFFFFF" height="30" style="stroke:#181818;stroke-width:1.0;" width="10" x="1001.5" y="266.7188"/><rect height="386.2188" style="stroke:#000000;stroke-width:1.5;fill:none;" width="959.5" x="10" y="311.7188"/><rect height="169.7578" style="stroke:#000000;stroke-width:1.5;fill:none;" width="939.5" x="20" y="521.1797"/><line style="stroke:#181818;stroke-width:0.5;fill:none;stroke-dasharray:5.0,5.0;" x1="80" x2="80" y1="82.6094" y2="745.2891"/><line style="stroke:#181818;stroke-width:0.5;fill:none;stroke-dasharray:5.0,5.0;" x1="359.5" x2="359.5" y1="82.6094" y2="745.2891"/><line style="stroke:#181818;stroke-width:0.5;fill:none;stroke-dasharray:5.0,5.0;" x1="633" x2="633" y1="82.6094" y2="745.2891"/><line style="stroke:#181818;stroke-width:0.5;fill:none;stroke-dasharray:5.0,5.0;" x1="914.5" x2="914.5" y1="82.6094" y2="745.2891"/><line style="stroke:#181818;stroke-width:0.5;fill:none;stroke-dasharray:5.0,5.0;" x1="1006" x2="1006" y1="82.6094" y2="745.2891"/><text fill="#000000" font-family="sans-serif" font-size="14" lengthAdjust="spacing" textLength="95" x="30" y="79.5332">Sales Manager</text><ellipse cx="80.5" cy="13.5" fill="#E2E2F0" rx="8" ry="8" style="stroke:#181818;stroke-width:0.5;"/><path d="M80.5,21.5 L80.5,48.5 M67.5,29.5 L93.5,29.5 M80.5,48.5 L67.5,63.5 M80.5,48.5 L93.5,63.5 " fill="none" style="stroke:#181818;stroke-width:0.5;"/><text fill="#000000" font-family="sans-serif" font-size="14" lengthAdjust="spacing" textLength="95" x="30" y="758.8223">Sales Manager</text><ellipse cx="80.5" cy="770.3984" fill="#E2E2F0" rx="8" ry="8" style="stroke:#181818;stroke-width:0.5;"/><path d="M80.5,778.3984 L80.5,805.3984 M67.5,786.3984 L93.5,786.3984 M80.5,805.3984 L67.5,820.3984 M80.5,805.3984 L93.5,820.3984 " fill="none" style="stroke:#181818;stroke-width:0.5;"/><rect fill="#E2E2F0" height="31.6094" rx="2.5" ry="2.5" style="stroke:#181818;stroke-width:0.5;" width="158" x="280.5" y="50"/><text fill="#000000" font-family="sans-serif" font-size="14" lengthAdjust="spacing" textLength="144" x="287.5" y="71.5332">CreateQuestionnaireUI</text><rect fill="#E2E2F0" height="31.6094" rx="2.5" ry="2.5" style="stroke:#181818;stroke-width:0.5;" width="158" x="280.5" y="744.2891"/><text fill="#000000" font-family="sans-serif" font-size="14" lengthAdjust="spacing" textLength="144" x="287.5" y="765.8223">CreateQuestionnaireUI</text><rect fill="#E2E2F0" height="31.6094" rx="2.5" ry="2.5" style="stroke:#181818;stroke-width:0.5;" width="165" x="551" y="50"/><text fill="#000000" font-family="sans-serif" font-size="14" lengthAdjust="spacing" textLength="151" x="558" y="71.5332">QuestionnaireController</text><rect fill="#E2E2F0" height="31.6094" rx="2.5" ry="2.5" style="stroke:#181818;stroke-width:0.5;" width="165" x="551" y="744.2891"/><text fill="#000000" font-family="sans-serif" font-size="14" lengthAdjust="spacing" textLength="151" x="558" y="765.8223">QuestionnaireController</text><rect fill="#E2E2F0" height="31.6094" rx="2.5" ry="2.5" style="stroke:#181818;stroke-width:0.5;" width="70" x="879.5" y="50"/><text fill="#000000" font-family="sans-serif" font-size="14" lengthAdjust="spacing" textLength="56" x="886.5" y="71.5332">FileWrite</text><rect fill="#E2E2F0" height="31.6094" rx="2.5" ry="2.5" style="stroke:#181818;stroke-width:0.5;" width="70" x="879.5" y="744.2891"/><text fill="#000000" font-family="sans-serif" font-size="14" lengthAdjust="spacing" textLength="56" x="886.5" y="765.8223">FileWrite</text><rect fill="#E2E2F0" height="31.6094" rx="2.5" ry="2.5" style="stroke:#181818;stroke-width:0.5;" width="75" x="969" y="50"/><text fill="#000000" font-family="sans-serif" font-size="14" lengthAdjust="spacing" textLength="61" x="976" y="71.5332">FileWriter</text><rect fill="#E2E2F0" height="31.6094" rx="2.5" ry="2.5" style="stroke:#181818;stroke-width:0.5;" width="75" x="969" y="744.2891"/><text fill="#000000" font-family="sans-serif" font-size="14" lengthAdjust="spacing" textLength="61" x="976" y="765.8223">FileWriter</text><rect fill="#FFFFFF" height="643.6797" style="stroke:#181818;stroke-width:1.0;" width="10" x="75.5" y="92.6094"/><rect fill="#FFFFFF" height="30.3516" style="stroke:#181818;stroke-width:1.0;" width="10" x="354.5" y="114.9609"/><rect fill="#FFFFFF" height="209.4609" style="stroke:#181818;stroke-width:1.0;" width="10" x="354.5" y="175.6641"/><rect fill="#FFFFFF" height="146.4063" style="stroke:#181818;stroke-width:1.0;" width="10" x="354.5" y="415.4766"/><rect fill="#FFFFFF" height="135.0547" style="stroke:#181818;stroke-width:1.0;" width="10" x="354.5" y="592.2344"/><rect fill="#FFFFFF" height="90.7031" style="stroke:#181818;stroke-width:1.0;" width="10" x="628.5" y="206.0156"/><rect fill="#FFFFFF" height="60.3516" style="stroke:#181818;stroke-width:1.0;" width="10" x="628.5" y="445.8281"/><rect fill="#FFFFFF" height="60.3516" style="stroke:#181818;stroke-width:1.0;" width="10" x="628.5" y="622.5859"/><rect fill="#FFFFFF" height="60.3516" style="stroke:#181818;stroke-width:1.0;" width="10" x="909.5" y="236.3672"/><rect fill="#FFFFFF" height="30" style="stroke:#181818;stroke-width:1.0;" width="10" x="909.5" y="476.1797"/><rect fill="#FFFFFF" height="30" style="stroke:#181818;stroke-width:1.0;" width="10" x="909.5" y="652.9375"/><rect fill="#FFFFFF" height="30" style="stroke:#181818;stroke-width:1.0;" width="10" x="1001.5" y="266.7188"/><polygon fill="#181818" points="342.5,110.9609,352.5,114.9609,342.5,118.9609,346.5,114.9609" style="stroke:#181818;stroke-width:1.0;"/><line style="stroke:#181818;stroke-width:1.0;" x1="85.5" x2="348.5" y1="114.9609" y2="114.9609"/><text fill="#000000" font-family="sans-serif" font-size="13" font-weight="bold" lengthAdjust="spacing" textLength="7" x="92.5" y="110.1045">1</text><text fill="#000000" font-family="sans-serif" font-size="13" lengthAdjust="spacing" textLength="211" x="103.5" y="110.1045">Request to Create New Questionaire</text><polygon fill="#181818" points="96.5,141.3125,86.5,145.3125,96.5,149.3125,92.5,145.3125" style="stroke:#181818;stroke-width:1.0;"/><line style="stroke:#181818;stroke-width:1.0;stroke-dasharray:2.0,2.0;" x1="90.5" x2="358.5" y1="145.3125" y2="145.3125"/><text fill="#000000" font-family="sans-serif" font-size="13" font-weight="bold" lengthAdjust="spacing" textLength="7" x="102.5" y="140.4561">2</text><text fill="#000000" font-family="sans-serif" font-size="13" lengthAdjust="spacing" textLength="184" x="113.5" y="140.4561">Ask about fileName, title, wmsg</text><polygon fill="#181818" points="342.5,171.6641,352.5,175.6641,342.5,179.6641,346.5,175.6641" style="stroke:#181818;stroke-width:1.0;"/><line style="stroke:#181818;stroke-width:1.0;" x1="85.5" x2="348.5" y1="175.6641" y2="175.6641"/><text fill="#000000" font-family="sans-serif" font-size="13" font-weight="bold" lengthAdjust="spacing" textLength="7" x="92.5" y="170.8076">3</text><text fill="#000000" font-family="sans-serif" font-size="13" lengthAdjust="spacing" textLength="106" x="103.5" y="170.8076">Write needed data</text><polygon fill="#181818" points="616.5,202.0156,626.5,206.0156,616.5,210.0156,620.5,206.0156" style="stroke:#181818;stroke-width:1.0;"/><line style="stroke:#181818;stroke-width:1.0;" x1="364.5" x2="622.5" y1="206.0156" y2="206.0156"/><text fill="#000000" font-family="sans-serif" font-size="13" font-weight="bold" lengthAdjust="spacing" textLength="7" x="371.5" y="201.1592">4</text><text fill="#000000" font-family="sans-serif" font-size="13" lengthAdjust="spacing" textLength="186" x="382.5" y="201.1592">createFile(fileName, title, wmsg)</text><polygon fill="#181818" points="897.5,232.3672,907.5,236.3672,897.5,240.3672,901.5,236.3672" style="stroke:#181818;stroke-width:1.0;"/><line style="stroke:#181818;stroke-width:1.0;" x1="638.5" x2="903.5" y1="236.3672" y2="236.3672"/><text fill="#000000" font-family="sans-serif" font-size="13" font-weight="bold" lengthAdjust="spacing" textLength="7" x="645.5" y="231.5107">5</text><text fill="#000000" font-family="sans-serif" font-size="13" lengthAdjust="spacing" textLength="186" x="656.5" y="231.5107">createFile(fileName, title, wmsg)</text><polygon fill="#181818" points="989.5,262.7188,999.5,266.7188,989.5,270.7188,993.5,266.7188" style="stroke:#181818;stroke-width:1.0;"/><line style="stroke:#181818;stroke-width:1.0;" x1="919.5" x2="995.5" y1="266.7188" y2="266.7188"/><text fill="#000000" font-family="sans-serif" font-size="13" font-weight="bold" lengthAdjust="spacing" textLength="7" x="926.5" y="261.8623">6</text><text fill="#000000" font-family="sans-serif" font-size="13" lengthAdjust="spacing" textLength="52" x="937.5" y="261.8623">newFile()</text><path d="M10,311.7188 L83,311.7188 L83,320.0703 L73,330.0703 L10,330.0703 L10,311.7188 " fill="#EEEEEE" style="stroke:#000000;stroke-width:1.5;"/><rect fill="none" height="386.2188" style="stroke:#000000;stroke-width:1.5;" width="959.5" x="10" y="311.7188"/><text fill="#000000" font-family="sans-serif" font-size="13" font-weight="bold" lengthAdjust="spacing" textLength="28" x="25" y="326.2139">loop</text><text fill="#000000" font-family="sans-serif" font-size="11" font-weight="bold" lengthAdjust="spacing" textLength="152" x="98" y="325.1377">[for each question addition]</text><polygon fill="#181818" points="96.5,381.125,86.5,385.125,96.5,389.125,92.5,385.125" style="stroke:#181818;stroke-width:1.0;"/><line style="stroke:#181818;stroke-width:1.0;stroke-dasharray:2.0,2.0;" x1="90.5" x2="358.5" y1="385.125" y2="385.125"/><text fill="#000000" font-family="sans-serif" font-size="13" font-weight="bold" lengthAdjust="spacing" textLength="7" x="102.5" y="363.917">7</text><text fill="#000000" font-family="sans-serif" font-size="13" lengthAdjust="spacing" textLength="192" x="113.5" y="347.5654">Ask Question text, type(option or</text><text fill="#000000" font-family="sans-serif" font-size="13" lengthAdjust="spacing" textLength="159" x="117.5" y="363.917">obligatory) and answer type</text><text fill="#000000" font-family="sans-serif" font-size="13" lengthAdjust="spacing" textLength="194" x="113.5" y="380.2686">(multiple choice,  numeric or text)</text><polygon fill="#181818" points="342.5,411.4766,352.5,415.4766,342.5,419.4766,346.5,415.4766" style="stroke:#181818;stroke-width:1.0;"/><line style="stroke:#181818;stroke-width:1.0;" x1="85.5" x2="348.5" y1="415.4766" y2="415.4766"/><text fill="#000000" font-family="sans-serif" font-size="13" font-weight="bold" lengthAdjust="spacing" textLength="7" x="92.5" y="410.6201">8</text><text fill="#000000" font-family="sans-serif" font-size="13" lengthAdjust="spacing" textLength="163" x="103.5" y="410.6201">Insert necessary information</text><polygon fill="#181818" points="616.5,441.8281,626.5,445.8281,616.5,449.8281,620.5,445.8281" style="stroke:#181818;stroke-width:1.0;"/><line style="stroke:#181818;stroke-width:1.0;" x1="364.5" x2="622.5" y1="445.8281" y2="445.8281"/><text fill="#000000" font-family="sans-serif" font-size="13" font-weight="bold" lengthAdjust="spacing" textLength="7" x="371.5" y="440.9717">9</text><text fill="#000000" font-family="sans-serif" font-size="13" lengthAdjust="spacing" textLength="234" x="382.5" y="440.9717">addQuestion(text,type, atype, fileName);</text><polygon fill="#181818" points="897.5,472.1797,907.5,476.1797,897.5,480.1797,901.5,476.1797" style="stroke:#181818;stroke-width:1.0;"/><line style="stroke:#181818;stroke-width:1.0;" x1="638.5" x2="903.5" y1="476.1797" y2="476.1797"/><text fill="#000000" font-family="sans-serif" font-size="13" font-weight="bold" lengthAdjust="spacing" textLength="14" x="645.5" y="471.3232">10</text><text fill="#000000" font-family="sans-serif" font-size="13" lengthAdjust="spacing" textLength="234" x="663.5" y="471.3232">addQuestion(text,type, atype, fileName);</text><path d="M20,521.1797 L93,521.1797 L93,529.5313 L83,539.5313 L20,539.5313 L20,521.1797 " fill="#EEEEEE" style="stroke:#000000;stroke-width:1.5;"/><rect fill="none" height="169.7578" style="stroke:#000000;stroke-width:1.5;" width="939.5" x="20" y="521.1797"/><text fill="#000000" font-family="sans-serif" font-size="13" font-weight="bold" lengthAdjust="spacing" textLength="28" x="35" y="535.6748">loop</text><text fill="#000000" font-family="sans-serif" font-size="11" font-weight="bold" lengthAdjust="spacing" textLength="125" x="108" y="534.5986">[opt = multiple_choice]</text><polygon fill="#181818" points="96.5,557.8828,86.5,561.8828,96.5,565.8828,92.5,561.8828" style="stroke:#181818;stroke-width:1.0;"/><line style="stroke:#181818;stroke-width:1.0;stroke-dasharray:2.0,2.0;" x1="90.5" x2="358.5" y1="561.8828" y2="561.8828"/><text fill="#000000" font-family="sans-serif" font-size="13" font-weight="bold" lengthAdjust="spacing" textLength="14" x="102.5" y="557.0264">11</text><text fill="#000000" font-family="sans-serif" font-size="13" lengthAdjust="spacing" textLength="209" x="120.5" y="557.0264">Ask for possible answer to Question</text><polygon fill="#181818" points="342.5,588.2344,352.5,592.2344,342.5,596.2344,346.5,592.2344" style="stroke:#181818;stroke-width:1.0;"/><line style="stroke:#181818;stroke-width:1.0;" x1="85.5" x2="348.5" y1="592.2344" y2="592.2344"/><text fill="#000000" font-family="sans-serif" font-size="13" font-weight="bold" lengthAdjust="spacing" textLength="14" x="92.5" y="587.3779">12</text><text fill="#000000" font-family="sans-serif" font-size="13" lengthAdjust="spacing" textLength="143" x="110.5" y="587.3779">Write the requested data</text><polygon fill="#181818" points="616.5,618.5859,626.5,622.5859,616.5,626.5859,620.5,622.5859" style="stroke:#181818;stroke-width:1.0;"/><line style="stroke:#181818;stroke-width:1.0;" x1="364.5" x2="622.5" y1="622.5859" y2="622.5859"/><text fill="#000000" font-family="sans-serif" font-size="13" font-weight="bold" lengthAdjust="spacing" textLength="14" x="371.5" y="617.7295">13</text><text fill="#000000" font-family="sans-serif" font-size="13" lengthAdjust="spacing" textLength="225" x="389.5" y="617.7295">addPossibleAnswer(answer, fileName);</text><polygon fill="#181818" points="897.5,648.9375,907.5,652.9375,897.5,656.9375,901.5,652.9375" style="stroke:#181818;stroke-width:1.0;"/><line style="stroke:#181818;stroke-width:1.0;" x1="638.5" x2="903.5" y1="652.9375" y2="652.9375"/><text fill="#000000" font-family="sans-serif" font-size="13" font-weight="bold" lengthAdjust="spacing" textLength="14" x="645.5" y="648.0811">14</text><text fill="#000000" font-family="sans-serif" font-size="13" lengthAdjust="spacing" textLength="225" x="663.5" y="648.0811">addPossibleAnswer(answer, fileName);</text><polygon fill="#181818" points="96.5,723.2891,86.5,727.2891,96.5,731.2891,92.5,727.2891" style="stroke:#181818;stroke-width:1.0;"/><line style="stroke:#181818;stroke-width:1.0;stroke-dasharray:2.0,2.0;" x1="90.5" x2="358.5" y1="727.2891" y2="727.2891"/><text fill="#000000" font-family="sans-serif" font-size="13" font-weight="bold" lengthAdjust="spacing" textLength="14" x="102.5" y="722.4326">15</text><text fill="#000000" font-family="sans-serif" font-size="13" lengthAdjust="spacing" textLength="227" x="120.5" y="722.4326">Informs questionnaire creation (sucess)</text><!--MD5=[b11f8901871a262b8095b5a7710c8dc0]
@startuml
'https://plantuml.com/sequence-diagram

autonumber

actor "Sales Manager" as SM
participant "CreateQuestionnaireUI" as UI
participant "QuestionnaireController" as CTR
participant "FileWrite" as FW
participant "FileWriter" as FWR


activate SM

SM->UI : Request to Create New Questionaire
activate UI
SM<- -UI : Ask about fileName, title, wmsg
deactivate UI
SM->UI : Write needed data
activate UI
UI->CTR : createFile(fileName, title, wmsg)
activate CTR
CTR -> FW : createFile(fileName, title, wmsg)
activate FW
FW -> FWR : newFile()
activate FWR
deactivate FWR
deactivate FW
deactivate CTR
loop for each question addition

SM<- -UI : Ask Question text, type(option or \n obligatory) and answer type \n(multiple choice,  numeric or text)
deactivate UI

SM->UI : Insert necessary information
activate UI

UI-> CTR : addQuestion(text,type, atype, fileName);
activate CTR
CTR -> FW : addQuestion(text,type, atype, fileName);
activate FW
deactivate FW
deactivate CTR


loop opt = multiple_choice


SM<- -UI : Ask for possible answer to Question
deactivate UI
SM->UI : Write the requested data
activate UI

UI -> CTR : addPossibleAnswer(answer, fileName);
activate CTR
CTR -> FW : addPossibleAnswer(answer, fileName);
activate FW
deactivate FW
deactivate CTR

end

end
SM<- -UI : Informs questionnaire creation (sucess)
deactivate UI

@enduml

@startuml

autonumber

actor "Sales Manager" as SM
participant "CreateQuestionnaireUI" as UI
participant "QuestionnaireController" as CTR
participant "FileWrite" as FW
participant "FileWriter" as FWR


activate SM

SM->UI : Request to Create New Questionaire
activate UI
SM<- -UI : Ask about fileName, title, wmsg
deactivate UI
SM->UI : Write needed data
activate UI
UI->CTR : createFile(fileName, title, wmsg)
activate CTR
CTR -> FW : createFile(fileName, title, wmsg)
activate FW
FW -> FWR : newFile()
activate FWR
deactivate FWR
deactivate FW
deactivate CTR
loop for each question addition

SM<- -UI : Ask Question text, type(option or \n obligatory) and answer type \n(multiple choice,  numeric or text)
deactivate UI

SM->UI : Insert necessary information
activate UI

UI-> CTR : addQuestion(text,type, atype, fileName);
activate CTR
CTR -> FW : addQuestion(text,type, atype, fileName);
activate FW
deactivate FW
deactivate CTR


loop opt = multiple_choice


SM<- -UI : Ask for possible answer to Question
deactivate UI
SM->UI : Write the requested data
activate UI

UI -> CTR : addPossibleAnswer(answer, fileName);
activate CTR
CTR -> FW : addPossibleAnswer(answer, fileName);
activate FW
deactivate FW
deactivate CTR

end

end
SM<- -UI : Informs questionnaire creation (sucess)
deactivate UI

@enduml

PlantUML version 1.2022.5(Sat Apr 30 11:55:52 BST 2022)
(GPL source distribution)
Java Runtime: OpenJDK Runtime Environment
JVM: OpenJDK 64-Bit Server VM
Default Encoding: Cp1252
Language: pt
Country: PT
--></g></svg>