<?xml version="1.0" encoding="UTF-8" standalone="no"?><svg xmlns="http://www.w3.org/2000/svg" xmlns:xlink="http://www.w3.org/1999/xlink" contentStyleType="text/css" height="728px" preserveAspectRatio="none" style="width:1016px;height:728px;background:#FFFFFF;" version="1.1" viewBox="0 0 1016 728" width="1016px" zoomAndPan="magnify"><defs/><g><rect fill="#FFFFFF" height="22.3516" style="stroke:#181818;stroke-width:1.0;" width="10" x="26" y="92.6094"/><rect fill="#FFFFFF" height="513.1641" style="stroke:#181818;stroke-width:1.0;" width="10" x="151" y="114.9609"/><rect fill="#FFFFFF" height="30" style="stroke:#181818;stroke-width:1.0;" width="10" x="398" y="266.0156"/><rect fill="#FFFFFF" height="60.3516" style="stroke:#181818;stroke-width:1.0;" width="10" x="398" y="326.3672"/><rect fill="#FFFFFF" height="30" style="stroke:#181818;stroke-width:1.0;" width="10" x="514" y="598.125"/><rect fill="#FFFFFF" height="30" style="stroke:#181818;stroke-width:1.0;" width="10" x="595" y="356.7188"/><rect fill="#FFFFFF" height="30" style="stroke:#181818;stroke-width:1.0;" width="10" x="686" y="477.4219"/><rect fill="#FFFFFF" height="30" style="stroke:#181818;stroke-width:1.0;" width="10" x="686" y="537.7734"/><rect fill="#FFFFFF" height="30" style="stroke:#181818;stroke-width:1.0;" width="10" x="815" y="145.3125"/><rect fill="#FFFFFF" height="30" style="stroke:#181818;stroke-width:1.0;" width="10" x="945" y="205.6641"/><rect fill="#FFFFFF" height="30" style="stroke:#181818;stroke-width:1.0;" width="10" x="945" y="417.0703"/><line style="stroke:#181818;stroke-width:0.5;stroke-dasharray:5.0,5.0;" x1="31" x2="31" y1="82.6094" y2="646.125"/><line style="stroke:#181818;stroke-width:0.5;stroke-dasharray:5.0,5.0;" x1="156" x2="156" y1="82.6094" y2="646.125"/><line style="stroke:#181818;stroke-width:0.5;stroke-dasharray:5.0,5.0;" x1="402.5" x2="402.5" y1="82.6094" y2="646.125"/><line style="stroke:#181818;stroke-width:0.5;stroke-dasharray:5.0,5.0;" x1="518.5" x2="518.5" y1="82.6094" y2="646.125"/><line style="stroke:#181818;stroke-width:0.5;stroke-dasharray:5.0,5.0;" x1="599.5" x2="599.5" y1="82.6094" y2="646.125"/><line style="stroke:#181818;stroke-width:0.5;stroke-dasharray:5.0,5.0;" x1="690.5" x2="690.5" y1="82.6094" y2="646.125"/><line style="stroke:#181818;stroke-width:0.5;stroke-dasharray:5.0,5.0;" x1="819.5" x2="819.5" y1="82.6094" y2="646.125"/><line style="stroke:#181818;stroke-width:0.5;stroke-dasharray:5.0,5.0;" x1="949.5" x2="949.5" y1="82.6094" y2="646.125"/><text fill="#000000" font-family="sans-serif" font-size="14" lengthAdjust="spacing" textLength="46" x="5" y="79.5332">System</text><ellipse cx="31" cy="13.5" fill="#E2E2F0" rx="8" ry="8" style="stroke:#181818;stroke-width:0.5;"/><path d="M31,21.5 L31,48.5 M18,29.5 L44,29.5 M31,48.5 L18,63.5 M31,48.5 L44,63.5 " fill="none" style="stroke:#181818;stroke-width:0.5;"/><text fill="#000000" font-family="sans-serif" font-size="14" lengthAdjust="spacing" textLength="46" x="5" y="659.6582">System</text><ellipse cx="31" cy="671.2344" fill="#E2E2F0" rx="8" ry="8" style="stroke:#181818;stroke-width:0.5;"/><path d="M31,679.2344 L31,706.2344 M18,687.2344 L44,687.2344 M31,706.2344 L18,721.2344 M31,706.2344 L44,721.2344 " fill="none" style="stroke:#181818;stroke-width:0.5;"/><rect fill="#E2E2F0" height="31.6094" rx="2.5" ry="2.5" style="stroke:#181818;stroke-width:0.5;" width="178" x="67" y="50"/><text fill="#000000" font-family="sans-serif" font-size="14" lengthAdjust="spacing" textLength="164" x="74" y="71.5332">AGV_MovementController</text><rect fill="#E2E2F0" height="31.6094" rx="2.5" ry="2.5" style="stroke:#181818;stroke-width:0.5;" width="178" x="67" y="645.125"/><text fill="#000000" font-family="sans-serif" font-size="14" lengthAdjust="spacing" textLength="164" x="74" y="666.6582">AGV_MovementController</text><rect fill="#E2E2F0" height="31.6094" rx="2.5" ry="2.5" style="stroke:#181818;stroke-width:0.5;" width="113" x="346.5" y="50"/><text fill="#000000" font-family="sans-serif" font-size="14" lengthAdjust="spacing" textLength="99" x="353.5" y="71.5332">AGV_Controller</text><rect fill="#E2E2F0" height="31.6094" rx="2.5" ry="2.5" style="stroke:#181818;stroke-width:0.5;" width="113" x="346.5" y="645.125"/><text fill="#000000" font-family="sans-serif" font-size="14" lengthAdjust="spacing" textLength="99" x="353.5" y="666.6582">AGV_Controller</text><rect fill="#E2E2F0" height="31.6094" rx="2.5" ry="2.5" style="stroke:#181818;stroke-width:0.5;" width="99" x="469.5" y="50"/><text fill="#000000" font-family="sans-serif" font-size="14" lengthAdjust="spacing" textLength="85" x="476.5" y="71.5332">RouteService</text><rect fill="#E2E2F0" height="31.6094" rx="2.5" ry="2.5" style="stroke:#181818;stroke-width:0.5;" width="99" x="469.5" y="645.125"/><text fill="#000000" font-family="sans-serif" font-size="14" lengthAdjust="spacing" textLength="85" x="476.5" y="666.6582">RouteService</text><rect fill="#E2E2F0" height="31.6094" rx="2.5" ry="2.5" style="stroke:#181818;stroke-width:0.5;" width="43" x="578.5" y="50"/><text fill="#000000" font-family="sans-serif" font-size="14" lengthAdjust="spacing" textLength="29" x="585.5" y="71.5332">AGV</text><rect fill="#E2E2F0" height="31.6094" rx="2.5" ry="2.5" style="stroke:#181818;stroke-width:0.5;" width="43" x="578.5" y="645.125"/><text fill="#000000" font-family="sans-serif" font-size="14" lengthAdjust="spacing" textLength="29" x="585.5" y="666.6582">AGV</text><rect fill="#E2E2F0" height="31.6094" rx="2.5" ry="2.5" style="stroke:#181818;stroke-width:0.5;" width="119" x="631.5" y="50"/><text fill="#000000" font-family="sans-serif" font-size="14" lengthAdjust="spacing" textLength="105" x="638.5" y="71.5332">OrderRepository</text><rect fill="#E2E2F0" height="31.6094" rx="2.5" ry="2.5" style="stroke:#181818;stroke-width:0.5;" width="119" x="631.5" y="645.125"/><text fill="#000000" font-family="sans-serif" font-size="14" lengthAdjust="spacing" textLength="105" x="638.5" y="666.6582">OrderRepository</text><rect fill="#E2E2F0" height="31.6094" rx="2.5" ry="2.5" style="stroke:#181818;stroke-width:0.5;" width="119" x="760.5" y="50"/><text fill="#000000" font-family="sans-serif" font-size="14" lengthAdjust="spacing" textLength="105" x="767.5" y="71.5332">AGV_Repository</text><rect fill="#E2E2F0" height="31.6094" rx="2.5" ry="2.5" style="stroke:#181818;stroke-width:0.5;" width="119" x="760.5" y="645.125"/><text fill="#000000" font-family="sans-serif" font-size="14" lengthAdjust="spacing" textLength="105" x="767.5" y="666.6582">AGV_Repository</text><rect fill="#E2E2F0" height="31.6094" rx="2.5" ry="2.5" style="stroke:#181818;stroke-width:0.5;" width="121" x="889.5" y="50"/><text fill="#000000" font-family="sans-serif" font-size="14" lengthAdjust="spacing" textLength="107" x="896.5" y="71.5332">Task_Repository</text><rect fill="#E2E2F0" height="31.6094" rx="2.5" ry="2.5" style="stroke:#181818;stroke-width:0.5;" width="121" x="889.5" y="645.125"/><text fill="#000000" font-family="sans-serif" font-size="14" lengthAdjust="spacing" textLength="107" x="896.5" y="666.6582">Task_Repository</text><rect fill="#FFFFFF" height="22.3516" style="stroke:#181818;stroke-width:1.0;" width="10" x="26" y="92.6094"/><rect fill="#FFFFFF" height="513.1641" style="stroke:#181818;stroke-width:1.0;" width="10" x="151" y="114.9609"/><rect fill="#FFFFFF" height="30" style="stroke:#181818;stroke-width:1.0;" width="10" x="398" y="266.0156"/><rect fill="#FFFFFF" height="60.3516" style="stroke:#181818;stroke-width:1.0;" width="10" x="398" y="326.3672"/><rect fill="#FFFFFF" height="30" style="stroke:#181818;stroke-width:1.0;" width="10" x="514" y="598.125"/><rect fill="#FFFFFF" height="30" style="stroke:#181818;stroke-width:1.0;" width="10" x="595" y="356.7188"/><rect fill="#FFFFFF" height="30" style="stroke:#181818;stroke-width:1.0;" width="10" x="686" y="477.4219"/><rect fill="#FFFFFF" height="30" style="stroke:#181818;stroke-width:1.0;" width="10" x="686" y="537.7734"/><rect fill="#FFFFFF" height="30" style="stroke:#181818;stroke-width:1.0;" width="10" x="815" y="145.3125"/><rect fill="#FFFFFF" height="30" style="stroke:#181818;stroke-width:1.0;" width="10" x="945" y="205.6641"/><rect fill="#FFFFFF" height="30" style="stroke:#181818;stroke-width:1.0;" width="10" x="945" y="417.0703"/><polygon fill="#181818" points="139,110.9609,149,114.9609,139,118.9609,143,114.9609" style="stroke:#181818;stroke-width:1.0;"/><line style="stroke:#181818;stroke-width:1.0;" x1="31" x2="145" y1="114.9609" y2="114.9609"/><text fill="#000000" font-family="sans-serif" font-size="13" font-weight="bold" lengthAdjust="spacing" textLength="7" x="38" y="110.1045">1</text><text fill="#000000" font-family="sans-serif" font-size="13" lengthAdjust="spacing" textLength="26" x="49" y="110.1045">run()</text><polygon fill="#181818" points="803,141.3125,813,145.3125,803,149.3125,807,145.3125" style="stroke:#181818;stroke-width:1.0;"/><line style="stroke:#181818;stroke-width:1.0;" x1="161" x2="809" y1="145.3125" y2="145.3125"/><text fill="#000000" font-family="sans-serif" font-size="13" font-weight="bold" lengthAdjust="spacing" textLength="7" x="168" y="140.4561">2</text><text fill="#000000" font-family="sans-serif" font-size="13" lengthAdjust="spacing" textLength="165" x="179" y="140.4561">List&lt;order&gt; = orders.findAll()</text><polygon fill="#181818" points="933,201.6641,943,205.6641,933,209.6641,937,205.6641" style="stroke:#181818;stroke-width:1.0;"/><line style="stroke:#181818;stroke-width:1.0;" x1="161" x2="939" y1="205.6641" y2="205.6641"/><text fill="#000000" font-family="sans-serif" font-size="13" font-weight="bold" lengthAdjust="spacing" textLength="7" x="168" y="200.8076">3</text><text fill="#000000" font-family="sans-serif" font-size="13" lengthAdjust="spacing" textLength="150" x="179" y="200.8076">List&lt;task&gt; = task.findAll()</text><polygon fill="#181818" points="386,262.0156,396,266.0156,386,270.0156,390,266.0156" style="stroke:#181818;stroke-width:1.0;"/><line style="stroke:#181818;stroke-width:1.0;" x1="161" x2="392" y1="266.0156" y2="266.0156"/><text fill="#000000" font-family="sans-serif" font-size="13" font-weight="bold" lengthAdjust="spacing" textLength="7" x="168" y="261.1592">4</text><text fill="#000000" font-family="sans-serif" font-size="13" lengthAdjust="spacing" textLength="207" x="179" y="261.1592">List&lt;AGV&gt; = getAvailableAGVList()</text><polygon fill="#181818" points="386,322.3672,396,326.3672,386,330.3672,390,326.3672" style="stroke:#181818;stroke-width:1.0;"/><line style="stroke:#181818;stroke-width:1.0;" x1="161" x2="392" y1="326.3672" y2="326.3672"/><text fill="#000000" font-family="sans-serif" font-size="13" font-weight="bold" lengthAdjust="spacing" textLength="7" x="168" y="321.5107">5</text><text fill="#000000" font-family="sans-serif" font-size="13" lengthAdjust="spacing" textLength="126" x="179" y="321.5107">assignTask(agv, task)</text><polygon fill="#181818" points="583,352.7188,593,356.7188,583,360.7188,587,356.7188" style="stroke:#181818;stroke-width:1.0;"/><line style="stroke:#181818;stroke-width:1.0;" x1="408" x2="589" y1="356.7188" y2="356.7188"/><text fill="#000000" font-family="sans-serif" font-size="13" font-weight="bold" lengthAdjust="spacing" textLength="7" x="415" y="351.8623">6</text><text fill="#000000" font-family="sans-serif" font-size="13" lengthAdjust="spacing" textLength="106" x="426" y="351.8623">agv.setTask(task);</text><polygon fill="#181818" points="933,413.0703,943,417.0703,933,421.0703,937,417.0703" style="stroke:#181818;stroke-width:1.0;"/><line style="stroke:#181818;stroke-width:1.0;" x1="161" x2="939" y1="417.0703" y2="417.0703"/><text fill="#000000" font-family="sans-serif" font-size="13" font-weight="bold" lengthAdjust="spacing" textLength="7" x="168" y="412.2139">7</text><text fill="#000000" font-family="sans-serif" font-size="13" lengthAdjust="spacing" textLength="198" x="179" y="412.2139">orderID = findOrderIDByTask(task)</text><polygon fill="#181818" points="674,473.4219,684,477.4219,674,481.4219,678,477.4219" style="stroke:#181818;stroke-width:1.0;"/><line style="stroke:#181818;stroke-width:1.0;" x1="161" x2="680" y1="477.4219" y2="477.4219"/><text fill="#000000" font-family="sans-serif" font-size="13" font-weight="bold" lengthAdjust="spacing" textLength="7" x="168" y="472.5654">8</text><text fill="#000000" font-family="sans-serif" font-size="13" lengthAdjust="spacing" textLength="172" x="179" y="472.5654">order = getOrderByID(orderID)</text><polygon fill="#181818" points="674,533.7734,684,537.7734,674,541.7734,678,537.7734" style="stroke:#181818;stroke-width:1.0;"/><line style="stroke:#181818;stroke-width:1.0;" x1="161" x2="680" y1="537.7734" y2="537.7734"/><text fill="#000000" font-family="sans-serif" font-size="13" font-weight="bold" lengthAdjust="spacing" textLength="7" x="168" y="532.917">9</text><text fill="#000000" font-family="sans-serif" font-size="13" lengthAdjust="spacing" textLength="243" x="179" y="532.917">List&lt;OrderItem&gt; = getOrderItemList(order)</text><polygon fill="#181818" points="502,594.125,512,598.125,502,602.125,506,598.125" style="stroke:#181818;stroke-width:1.0;"/><line style="stroke:#181818;stroke-width:1.0;" x1="161" x2="508" y1="598.125" y2="598.125"/><text fill="#000000" font-family="sans-serif" font-size="13" font-weight="bold" lengthAdjust="spacing" textLength="14" x="168" y="593.2686">10</text><text fill="#000000" font-family="sans-serif" font-size="13" lengthAdjust="spacing" textLength="200" x="186" y="593.2686">running(task,List&lt;OrderItem&gt;, agv)</text><!--MD5=[487c0d9281772fd49744dcced1ffed94]
@startuml
'https://plantuml.com/sequence-diagram
autonumber

actor "System" as SM

participant "AGV_MovementController" as CTR
participant "AGV_Controller" as ACTR
participant "RouteService" as RS

participant "AGV" as AGV

participant "OrderRepository" as OR
participant "AGV_Repository" as AGVR
participant "Task_Repository" as TR

activate SM
SM -> CTR : run()
deactivate SM

activate CTR

CTR -> AGVR : List<order> = orders.findAll()
activate AGVR
deactivate AGVR

CTR -> TR : List<task> = task.findAll()
activate TR
deactivate TR

CTR -> ACTR : List<AGV> = getAvailableAGVList()
activate ACTR
deactivate ACTR

CTR -> ACTR : assignTask(agv, task)
activate ACTR
ACTR -> AGV : agv.setTask(task);
activate AGV
deactivate AGV

deactivate ACTR

CTR -> TR : orderID = findOrderIDByTask(task)
activate TR
deactivate TR

CTR -> OR : order = getOrderByID(orderID)
activate OR
deactivate OR

CTR -> OR : List<OrderItem> = getOrderItemList(order)
activate OR
deactivate OR

CTR -> RS : running(task,List<OrderItem>, agv)
activate RS

deactivate RS


deactivate CTR


@enduml

@startuml
autonumber

actor "System" as SM

participant "AGV_MovementController" as CTR
participant "AGV_Controller" as ACTR
participant "RouteService" as RS

participant "AGV" as AGV

participant "OrderRepository" as OR
participant "AGV_Repository" as AGVR
participant "Task_Repository" as TR

activate SM
SM -> CTR : run()
deactivate SM

activate CTR

CTR -> AGVR : List<order> = orders.findAll()
activate AGVR
deactivate AGVR

CTR -> TR : List<task> = task.findAll()
activate TR
deactivate TR

CTR -> ACTR : List<AGV> = getAvailableAGVList()
activate ACTR
deactivate ACTR

CTR -> ACTR : assignTask(agv, task)
activate ACTR
ACTR -> AGV : agv.setTask(task);
activate AGV
deactivate AGV

deactivate ACTR

CTR -> TR : orderID = findOrderIDByTask(task)
activate TR
deactivate TR

CTR -> OR : order = getOrderByID(orderID)
activate OR
deactivate OR

CTR -> OR : List<OrderItem> = getOrderItemList(order)
activate OR
deactivate OR

CTR -> RS : running(task,List<OrderItem>, agv)
activate RS

deactivate RS


deactivate CTR


@enduml

PlantUML version 1.2022.5(Sat Apr 30 11:55:52 BST 2022)
(GPL source distribution)
Java Runtime: OpenJDK Runtime Environment
JVM: OpenJDK 64-Bit Server VM
Default Encoding: Cp1252
Language: pt
Country: PT
--></g></svg>